# File created by Blade
# Date/Time:  Wed Jan 21 17:47:32 2015
# Frame Rate: 120.000 fps
#------------------------------------------------------
:FULLY-SPECIFIED
:DEGREES
1245
root 21.821438 26.810360 -18.370225 -157.514646 41.745580 -213.716580
Spine 50.148280 23.319953 56.226162
Head -4.457626 52.851080 -27.985920
LeftShoulder -25.354957 -19.218647 25.494925
LeftArm -36.536584 15.795202 -12.011609
LeftForeArm -17.330102 0.000000 -1.297488
LeftHand -9.398596 -0.000000 12.099228
LeftHandThumb1 -26.253704 0.000000 33.147579
RightShoulder 12.121318 3.991538 -42.140262
RightArm -17.664159 31.055634 27.418781
RightForeArm -2.160092 -0.000000 20.018397
RightHand -13.958781 0.000000 -19.150398
RightHandThumb1 -24.326973 -0.000000 -32.862282
LeftUpLeg -17.151764 16.487697 -6.049248
LeftLeg -1.968122 -0.000000 0.000000
LeftFoot -32.655354 4.307397 -29.590551
LeftToeBase 30.754023 -0.000000 -0.000000
RightUpLeg -114.062364 -28.718663 -2.915324
RightLeg 83.305324 -0.000000 -0.000000
RightFoot -37.853012 -25.060183 19.941919
RightToeBase 23.065550 -0.000000 -0.000000
1246
root 21.819512 26.812181 -18.357626 -157.509614 41.787657 -213.684455
Spine 50.150623 23.310474 56.147974
Head -4.698675 52.558298 -28.124448
LeftShoulder -25.309878 -19.127793 25.344263
LeftArm -36.688069 15.725195 -12.031558
LeftForeArm -17.568164 -0.000000 -1.333880
LeftHand -9.166257 -0.000000 12.363599
LeftHandThumb1 -26.253704 0.000000 33.147579
RightShoulder 12.114201 4.022379 -42.050188
RightArm -17.437681 31.047270 27.404484
RightForeArm -2.079541 -0.000000 19.861384
RightHand -13.915632 -0.000000 -19.087211
RightHandThumb1 -24.326973 -0.000000 -32.862282
LeftUpLeg -17.191775 16.536393 -6.038299
LeftLeg -1.899634 -0.000000 0.000000
LeftFoot -32.740216 4.338556 -29.491233
LeftToeBase 30.862850 -0.000000 -0.000000
RightUpLeg -114.062023 -28.667079 -2.869585
RightLeg 83.267946 -0.000000 -0.000000
RightFoot -37.842300 -24.985566 20.032232
RightToeBase 23.205364 -0.000000 -0.000000
1247
root 21.817621 26.813527 -18.343716 -157.496964 41.828294 -213.635625
Spine 50.142598 23.280344 56.044298
Head -4.991604 52.199833 -28.308358
LeftShoulder -25.232010 -19.112887 25.153543
LeftArm -36.921525 15.694405 -11.939492
LeftForeArm -17.988563 -0.000000 -1.369480
LeftHand -9.244433 0.000000 12.330743
LeftHandThumb1 -26.253704 0.000000 33.147579
RightShoulder 12.136719 4.075484 -41.929833
RightArm -17.208763 31.041624 27.355786
RightForeArm -2.037751 0.000000 19.691243
RightHand -13.857318 -0.000000 -18.984058
RightHandThumb1 -24.326973 -0.000000 -32.862282
LeftUpLeg -17.237051 16.594064 -6.015885
LeftLeg -1.816410 -0.000000 0.000000
LeftFoot -32.845804 4.377671 -29.379596
LeftToeBase 30.910273 -0.000000 -0.000000
RightUpLeg -114.061237 -28.610650 -2.800341
RightLeg 83.228823 -0.000000 -0.000000
RightFoot -37.841255 -24.886973 20.050560
RightToeBase 23.199661 -0.000000 -0.000000
1248
root 21.813155 26.814108 -18.328868 -157.490886 41.872688 -213.609576
Spine 50.132585 23.258540 55.891483
Head -5.290527 51.892374 -28.474336
LeftShoulder -25.186367 -19.044650 24.956736
LeftArm -37.129397 15.585245 -11.896156
LeftForeArm -18.634740 0.000000 -1.476490
LeftHand -9.206086 0.000000 12.520363
LeftHandThumb1 -26.253704 0.000000 33.147579
RightShoulder 12.155717 4.158462 -41.782596
RightArm -16.966354 30.909845 27.317934
RightForeArm -1.997764 -0.000000 19.506380
RightHand -13.833702 0.000000 -18.870331
RightHandThumb1 -24.326973 -0.000000 -32.862282
LeftUpLeg -17.294112 16.639615 -6.014845
LeftLeg -1.735665 -0.000000 0.000000
LeftFoot -32.958759 4.416585 -29.248469
LeftToeBase 31.097772 -0.000000 -0.000000
RightUpLeg -114.065792 -28.557293 -2.761184
RightLeg 83.185064 -0.000000 -0.000000
RightFoot -37.843191 -24.838590 20.004631
RightToeBase 23.245552 -0.000000 -0.000000
1249
root 21.812343 26.814629 -18.310615 -157.445998 41.917833 -213.526085
Spine 50.141770 23.228676 55.755220
Head -5.677051 51.522653 -28.724057
LeftShoulder -25.201334 -18.953415 24.758778
LeftArm -37.304924 15.399644 -11.802673
LeftForeArm -19.432601 -0.000000 -1.547525
LeftHand -9.325659 -0.000000 12.608547
LeftHandThumb1 -26.253704 0.000000 33.147579
RightShoulder 12.188327 4.187490 -41.626422
RightArm -16.705583 30.787302 27.266322
RightForeArm -1.934053 -0.000000 19.347796
RightHand -13.812209 -0.000000 -18.654392
RightHandThumb1 -24.326973 -0.000000 -32.862282
LeftUpLeg -17.374671 16.742646 -5.981227
LeftLeg -1.619137 -0.000000 0.000000
LeftFoot -33.080864 4.419449 -29.087270
LeftToeBase 31.231251 -0.000000 -0.000000
RightUpLeg -114.071419 -28.479349 -2.662474
RightLeg 83.143056 -0.000000 -0.000000
RightFoot -37.858091 -24.731998 20.050984
RightToeBase 23.164254 -0.000000 -0.000000
1250
root 21.811586 26.814574 -18.294061 -157.414531 41.939219 -213.447548
Spine 50.135726 23.164820 55.602499
Head -6.099161 51.106985 -29.019096
LeftShoulder -25.198542 -18.926997 24.547316
LeftArm -37.528826 15.246596 -11.721866
LeftForeArm -20.601051 -0.000000 -1.729803
LeftHand -9.291784 0.000000 12.793861
LeftHandThumb1 -26.253704 0.000000 33.147579
RightShoulder 12.235529 4.185345 -41.474677
RightArm -16.436584 30.667286 27.214288
RightForeArm -1.841294 0.000000 19.192011
RightHand -13.739570 -0.000000 -18.427710
RightHandThumb1 -24.326973 -0.000000 -32.862282
LeftUpLeg -17.444369 16.845217 -5.949860
LeftLeg -1.509520 -0.000000 0.000000
LeftFoot -33.208251 4.422569 -28.912359
LeftToeBase 31.336263 -0.000000 -0.000000
RightUpLeg -114.082417 -28.446068 -2.536522
RightLeg 83.114835 -0.000000 -0.000000
RightFoot -37.857738 -24.629756 20.000770
RightToeBase 23.353732 -0.000000 -0.000000
1251
root 21.812485 26.814146 -18.277786 -157.389400 41.941456 -213.347325
Spine 50.132220 23.069930 55.463439
Head -6.555189 50.609672 -29.354543
LeftShoulder -25.212560 -18.845458 24.361488
LeftArm -37.751642 15.028479 -11.749220
LeftForeArm -21.952269 -0.000000 -1.941593
LeftHand -9.234017 -0.000000 13.047167
LeftHandThumb1 -26.253704 0.000000 33.147579
RightShoulder 12.291699 4.124715 -41.319865
RightArm -16.125992 30.593793 27.142663
RightForeArm -1.769504 -0.000000 18.984436
RightHand -13.659124 0.000000 -18.144176
RightHandThumb1 -24.326973 -0.000000 -32.862282
LeftUpLeg -17.499875 16.972911 -5.896711
LeftLeg -1.382032 -0.000000 0.000000
LeftFoot -33.314178 4.362869 -28.765473
LeftToeBase 31.472340 -0.000000 -0.000000
RightUpLeg -114.071383 -28.428636 -2.374892
RightLeg 83.082750 -0.000000 -0.000000
RightFoot -37.867916 -24.536448 19.883571
RightToeBase 23.416232 -0.000000 -0.000000
